ply
format ascii 1.0
comment Created by Blender 2.79 (sub 0) - www.blender.org, source file: ''
element vertex 441
property float x
property float y
property float z
property float nx
property float ny
property float nz
property float s
property float t
element face 800
property list uchar uint vertex_indices
end_header
-0.900000 -1.000000 0.000000 -0.000000 0.000000 1.000000 0.050000 0.000000
-1.000000 -0.900000 0.000000 -0.000000 0.000000 1.000000 0.000000 0.050000
-1.000000 -1.000000 0.000000 -0.000000 0.000000 1.000000 0.000000 0.000000
-0.800000 -1.000000 0.000000 -0.000000 0.000000 1.000000 0.100000 0.000000
-0.900000 -0.900000 0.000000 -0.000000 0.000000 1.000000 0.050000 0.050000
-0.700000 -1.000000 0.000000 -0.000000 0.000000 1.000000 0.150000 0.000000
-0.800000 -0.900000 0.000000 -0.000000 0.000000 1.000000 0.100000 0.050000
-0.600000 -1.000000 0.000000 -0.000000 0.000000 1.000000 0.200000 0.000000
-0.700000 -0.900000 0.000000 -0.000000 0.000000 1.000000 0.150000 0.050000
-0.500000 -1.000000 0.000000 -0.000000 0.000000 1.000000 0.250000 0.000000
-0.600000 -0.900000 0.000000 -0.000000 0.000000 1.000000 0.200000 0.050000
-0.400000 -1.000000 0.000000 -0.000000 0.000000 1.000000 0.300000 0.000000
-0.500000 -0.900000 0.000000 -0.000000 0.000000 1.000000 0.250000 0.050000
-0.300000 -1.000000 0.000000 -0.000000 0.000000 1.000000 0.350000 0.000000
-0.400000 -0.900000 0.000000 -0.000000 0.000000 1.000000 0.300000 0.050000
-0.200000 -1.000000 0.000000 -0.000000 0.000000 1.000000 0.400000 0.000000
-0.300000 -0.900000 0.000000 -0.000000 0.000000 1.000000 0.350000 0.050000
-0.100000 -1.000000 0.000000 -0.000000 0.000000 1.000000 0.450000 0.000000
-0.200000 -0.900000 0.000000 -0.000000 0.000000 1.000000 0.400000 0.050000
0.000000 -1.000000 0.000000 -0.000000 0.000000 1.000000 0.500000 0.000000
-0.100000 -0.900000 0.000000 -0.000000 0.000000 1.000000 0.450000 0.050000
0.100000 -1.000000 0.000000 -0.000000 0.000000 1.000000 0.550000 0.000000
0.000000 -0.900000 0.000000 -0.000000 0.000000 1.000000 0.500000 0.050000
0.200000 -1.000000 0.000000 -0.000000 0.000000 1.000000 0.600000 0.000000
0.100000 -0.900000 0.000000 -0.000000 0.000000 1.000000 0.550000 0.050000
0.300000 -1.000000 0.000000 -0.000000 0.000000 1.000000 0.650000 0.000000
0.200000 -0.900000 0.000000 -0.000000 0.000000 1.000000 0.600000 0.050000
0.400000 -1.000000 0.000000 -0.000000 0.000000 1.000000 0.700000 0.000000
0.300000 -0.900000 0.000000 -0.000000 0.000000 1.000000 0.650000 0.050000
0.500000 -1.000000 0.000000 -0.000000 0.000000 1.000000 0.750000 0.000000
0.400000 -0.900000 0.000000 -0.000000 0.000000 1.000000 0.700000 0.050000
0.600000 -1.000000 0.000000 -0.000000 0.000000 1.000000 0.800000 0.000000
0.500000 -0.900000 0.000000 -0.000000 0.000000 1.000000 0.750000 0.050000
0.700000 -1.000000 0.000000 -0.000000 0.000000 1.000000 0.850000 0.000000
0.600000 -0.900000 0.000000 -0.000000 0.000000 1.000000 0.800000 0.050000
0.800000 -1.000000 0.000000 -0.000000 0.000000 1.000000 0.900000 0.000000
0.700000 -0.900000 0.000000 -0.000000 0.000000 1.000000 0.850000 0.050000
0.900000 -1.000000 0.000000 -0.000000 0.000000 1.000000 0.950000 0.000000
0.800000 -0.900000 0.000000 -0.000000 0.000000 1.000000 0.900000 0.050000
1.000000 -1.000000 0.000000 -0.000000 0.000000 1.000000 1.000000 0.000000
0.900000 -0.900000 0.000000 -0.000000 0.000000 1.000000 0.950000 0.050000
-1.000000 -0.800000 0.000000 -0.000000 0.000000 1.000000 0.000000 0.100000
-0.900000 -0.800000 0.000000 -0.000000 0.000000 1.000000 0.050000 0.100000
-0.800000 -0.800000 0.000000 -0.000000 0.000000 1.000000 0.100000 0.100000
-0.700000 -0.800000 0.000000 -0.000000 0.000000 1.000000 0.150000 0.100000
-0.600000 -0.800000 0.000000 -0.000000 0.000000 1.000000 0.200000 0.100000
-0.500000 -0.800000 0.000000 -0.000000 0.000000 1.000000 0.250000 0.100000
-0.400000 -0.800000 0.000000 -0.000000 0.000000 1.000000 0.300000 0.100000
-0.300000 -0.800000 0.000000 -0.000000 0.000000 1.000000 0.350000 0.100000
-0.200000 -0.800000 0.000000 -0.000000 0.000000 1.000000 0.400000 0.100000
-0.100000 -0.800000 0.000000 -0.000000 0.000000 1.000000 0.450000 0.100000
0.000000 -0.800000 0.000000 -0.000000 0.000000 1.000000 0.500000 0.100000
0.100000 -0.800000 0.000000 -0.000000 0.000000 1.000000 0.550000 0.100000
0.200000 -0.800000 0.000000 -0.000000 0.000000 1.000000 0.600000 0.100000
0.300000 -0.800000 0.000000 -0.000000 0.000000 1.000000 0.650000 0.100000
0.400000 -0.800000 0.000000 -0.000000 0.000000 1.000000 0.700000 0.100000
0.500000 -0.800000 0.000000 -0.000000 0.000000 1.000000 0.750000 0.100000
0.600000 -0.800000 0.000000 -0.000000 0.000000 1.000000 0.800000 0.100000
0.700000 -0.800000 0.000000 -0.000000 0.000000 1.000000 0.850000 0.100000
0.800000 -0.800000 0.000000 -0.000000 0.000000 1.000000 0.900000 0.100000
1.000000 -0.900000 0.000000 -0.000000 0.000000 1.000000 1.000000 0.050000
0.900000 -0.800000 0.000000 -0.000000 0.000000 1.000000 0.950000 0.100000
-1.000000 -0.700000 0.000000 -0.000000 0.000000 1.000000 0.000000 0.150000
-0.900000 -0.700000 0.000000 -0.000000 0.000000 1.000000 0.050000 0.150000
-0.800000 -0.700000 0.000000 -0.000000 0.000000 1.000000 0.100000 0.150000
-0.700000 -0.700000 0.000000 -0.000000 0.000000 1.000000 0.150000 0.150000
-0.600000 -0.700000 0.000000 -0.000000 0.000000 1.000000 0.200000 0.150000
-0.500000 -0.700000 0.000000 -0.000000 0.000000 1.000000 0.250000 0.150000
-0.400000 -0.700000 0.000000 -0.000000 0.000000 1.000000 0.300000 0.150000
-0.300000 -0.700000 0.000000 -0.000000 0.000000 1.000000 0.350000 0.150000
-0.200000 -0.700000 0.000000 -0.000000 0.000000 1.000000 0.400000 0.150000
-0.100000 -0.700000 0.000000 -0.000000 0.000000 1.000000 0.450000 0.150000
0.000000 -0.700000 0.000000 -0.000000 0.000000 1.000000 0.500000 0.150000
0.100000 -0.700000 0.000000 -0.000000 0.000000 1.000000 0.550000 0.150000
0.200000 -0.700000 0.000000 -0.000000 0.000000 1.000000 0.600000 0.150000
0.300000 -0.700000 0.000000 -0.000000 0.000000 1.000000 0.650000 0.150000
0.400000 -0.700000 0.000000 -0.000000 0.000000 1.000000 0.700000 0.150000
0.500000 -0.700000 0.000000 -0.000000 0.000000 1.000000 0.750000 0.150000
0.600000 -0.700000 0.000000 -0.000000 0.000000 1.000000 0.800000 0.150000
0.700000 -0.700000 0.000000 -0.000000 0.000000 1.000000 0.850000 0.150000
0.800000 -0.700000 0.000000 -0.000000 0.000000 1.000000 0.900000 0.150000
1.000000 -0.800000 0.000000 -0.000000 0.000000 1.000000 1.000000 0.100000
0.900000 -0.700000 0.000000 -0.000000 0.000000 1.000000 0.950000 0.150000
-1.000000 -0.600000 0.000000 -0.000000 0.000000 1.000000 0.000000 0.200000
-0.900000 -0.600000 0.000000 -0.000000 0.000000 1.000000 0.050000 0.200000
-0.800000 -0.600000 0.000000 -0.000000 0.000000 1.000000 0.100000 0.200000
-0.700000 -0.600000 0.000000 -0.000000 0.000000 1.000000 0.150000 0.200000
-0.600000 -0.600000 0.000000 -0.000000 0.000000 1.000000 0.200000 0.200000
-0.500000 -0.600000 0.000000 -0.000000 0.000000 1.000000 0.250000 0.200000
-0.400000 -0.600000 0.000000 -0.000000 0.000000 1.000000 0.300000 0.200000
-0.300000 -0.600000 0.000000 -0.000000 0.000000 1.000000 0.350000 0.200000
-0.200000 -0.600000 0.000000 -0.000000 0.000000 1.000000 0.400000 0.200000
-0.100000 -0.600000 0.000000 -0.000000 0.000000 1.000000 0.450000 0.200000
0.000000 -0.600000 0.000000 -0.000000 0.000000 1.000000 0.500000 0.200000
0.100000 -0.600000 0.000000 -0.000000 0.000000 1.000000 0.550000 0.200000
0.200000 -0.600000 0.000000 -0.000000 0.000000 1.000000 0.600000 0.200000
0.300000 -0.600000 0.000000 -0.000000 0.000000 1.000000 0.650000 0.200000
0.400000 -0.600000 0.000000 -0.000000 0.000000 1.000000 0.700000 0.200000
0.500000 -0.600000 0.000000 -0.000000 0.000000 1.000000 0.750000 0.200000
0.600000 -0.600000 0.000000 -0.000000 0.000000 1.000000 0.800000 0.200000
0.700000 -0.600000 0.000000 -0.000000 0.000000 1.000000 0.850000 0.200000
0.800000 -0.600000 0.000000 -0.000000 0.000000 1.000000 0.900000 0.200000
1.000000 -0.700000 0.000000 -0.000000 0.000000 1.000000 1.000000 0.150000
0.900000 -0.600000 0.000000 -0.000000 0.000000 1.000000 0.950000 0.200000
-1.000000 -0.500000 0.000000 -0.000000 0.000000 1.000000 0.000000 0.250000
-0.900000 -0.500000 0.000000 -0.000000 0.000000 1.000000 0.050000 0.250000
-0.800000 -0.500000 0.000000 -0.000000 0.000000 1.000000 0.100000 0.250000
-0.700000 -0.500000 0.000000 -0.000000 0.000000 1.000000 0.150000 0.250000
-0.600000 -0.500000 0.000000 -0.000000 0.000000 1.000000 0.200000 0.250000
-0.500000 -0.500000 0.000000 -0.000000 0.000000 1.000000 0.250000 0.250000
-0.400000 -0.500000 0.000000 -0.000000 0.000000 1.000000 0.300000 0.250000
-0.300000 -0.500000 0.000000 -0.000000 0.000000 1.000000 0.350000 0.250000
-0.200000 -0.500000 0.000000 -0.000000 0.000000 1.000000 0.400000 0.250000
-0.100000 -0.500000 0.000000 -0.000000 0.000000 1.000000 0.450000 0.250000
0.000000 -0.500000 0.000000 -0.000000 0.000000 1.000000 0.500000 0.250000
0.100000 -0.500000 0.000000 -0.000000 0.000000 1.000000 0.550000 0.250000
0.200000 -0.500000 0.000000 -0.000000 0.000000 1.000000 0.600000 0.250000
0.300000 -0.500000 0.000000 -0.000000 0.000000 1.000000 0.650000 0.250000
0.400000 -0.500000 0.000000 -0.000000 0.000000 1.000000 0.700000 0.250000
0.500000 -0.500000 0.000000 -0.000000 0.000000 1.000000 0.750000 0.250000
0.600000 -0.500000 0.000000 -0.000000 0.000000 1.000000 0.800000 0.250000
0.700000 -0.500000 0.000000 -0.000000 0.000000 1.000000 0.850000 0.250000
0.800000 -0.500000 0.000000 -0.000000 0.000000 1.000000 0.900000 0.250000
1.000000 -0.600000 0.000000 -0.000000 0.000000 1.000000 1.000000 0.200000
0.900000 -0.500000 0.000000 -0.000000 0.000000 1.000000 0.950000 0.250000
-1.000000 -0.400000 0.000000 -0.000000 0.000000 1.000000 0.000000 0.300000
-0.900000 -0.400000 0.000000 -0.000000 0.000000 1.000000 0.050000 0.300000
-0.800000 -0.400000 0.000000 -0.000000 0.000000 1.000000 0.100000 0.300000
-0.700000 -0.400000 0.000000 -0.000000 0.000000 1.000000 0.150000 0.300000
-0.600000 -0.400000 0.000000 -0.000000 0.000000 1.000000 0.200000 0.300000
-0.500000 -0.400000 0.000000 -0.000000 0.000000 1.000000 0.250000 0.300000
-0.400000 -0.400000 0.000000 -0.000000 0.000000 1.000000 0.300000 0.300000
-0.300000 -0.400000 0.000000 -0.000000 0.000000 1.000000 0.350000 0.300000
-0.200000 -0.400000 0.000000 -0.000000 0.000000 1.000000 0.400000 0.300000
-0.100000 -0.400000 0.000000 -0.000000 0.000000 1.000000 0.450000 0.300000
0.000000 -0.400000 0.000000 -0.000000 0.000000 1.000000 0.500000 0.300000
0.100000 -0.400000 0.000000 -0.000000 0.000000 1.000000 0.550000 0.300000
0.200000 -0.400000 0.000000 -0.000000 0.000000 1.000000 0.600000 0.300000
0.300000 -0.400000 0.000000 -0.000000 0.000000 1.000000 0.650000 0.300000
0.400000 -0.400000 0.000000 -0.000000 0.000000 1.000000 0.700000 0.300000
0.500000 -0.400000 0.000000 -0.000000 0.000000 1.000000 0.750000 0.300000
0.600000 -0.400000 0.000000 -0.000000 0.000000 1.000000 0.800000 0.300000
0.700000 -0.400000 0.000000 -0.000000 0.000000 1.000000 0.850000 0.300000
0.800000 -0.400000 0.000000 -0.000000 0.000000 1.000000 0.900000 0.300000
1.000000 -0.500000 0.000000 -0.000000 0.000000 1.000000 1.000000 0.250000
0.900000 -0.400000 0.000000 -0.000000 0.000000 1.000000 0.950000 0.300000
-1.000000 -0.300000 0.000000 -0.000000 0.000000 1.000000 0.000000 0.350000
-0.900000 -0.300000 0.000000 -0.000000 0.000000 1.000000 0.050000 0.350000
-0.800000 -0.300000 0.000000 -0.000000 0.000000 1.000000 0.100000 0.350000
-0.700000 -0.300000 0.000000 -0.000000 0.000000 1.000000 0.150000 0.350000
-0.600000 -0.300000 0.000000 -0.000000 0.000000 1.000000 0.200000 0.350000
-0.500000 -0.300000 0.000000 -0.000000 0.000000 1.000000 0.250000 0.350000
-0.400000 -0.300000 0.000000 -0.000000 0.000000 1.000000 0.300000 0.350000
-0.300000 -0.300000 0.000000 -0.000000 0.000000 1.000000 0.350000 0.350000
-0.200000 -0.300000 0.000000 -0.000000 0.000000 1.000000 0.400000 0.350000
-0.100000 -0.300000 0.000000 -0.000000 0.000000 1.000000 0.450000 0.350000
0.000000 -0.300000 0.000000 -0.000000 0.000000 1.000000 0.500000 0.350000
0.100000 -0.300000 0.000000 -0.000000 0.000000 1.000000 0.550000 0.350000
0.200000 -0.300000 0.000000 -0.000000 0.000000 1.000000 0.600000 0.350000
0.300000 -0.300000 0.000000 -0.000000 0.000000 1.000000 0.650000 0.350000
0.400000 -0.300000 0.000000 -0.000000 0.000000 1.000000 0.700000 0.350000
0.500000 -0.300000 0.000000 -0.000000 0.000000 1.000000 0.750000 0.350000
0.600000 -0.300000 0.000000 -0.000000 0.000000 1.000000 0.800000 0.350000
0.700000 -0.300000 0.000000 -0.000000 0.000000 1.000000 0.850000 0.350000
0.800000 -0.300000 0.000000 -0.000000 0.000000 1.000000 0.900000 0.350000
1.000000 -0.400000 0.000000 -0.000000 0.000000 1.000000 1.000000 0.300000
0.900000 -0.300000 0.000000 -0.000000 0.000000 1.000000 0.950000 0.350000
-1.000000 -0.200000 0.000000 -0.000000 0.000000 1.000000 0.000000 0.400000
-0.900000 -0.200000 0.000000 -0.000000 0.000000 1.000000 0.050000 0.400000
-0.800000 -0.200000 0.000000 -0.000000 0.000000 1.000000 0.100000 0.400000
-0.700000 -0.200000 0.000000 -0.000000 0.000000 1.000000 0.150000 0.400000
-0.600000 -0.200000 0.000000 -0.000000 0.000000 1.000000 0.200000 0.400000
-0.500000 -0.200000 0.000000 -0.000000 0.000000 1.000000 0.250000 0.400000
-0.400000 -0.200000 0.000000 -0.000000 0.000000 1.000000 0.300000 0.400000
-0.300000 -0.200000 0.000000 -0.000000 0.000000 1.000000 0.350000 0.400000
-0.200000 -0.200000 0.000000 -0.000000 0.000000 1.000000 0.400000 0.400000
-0.100000 -0.200000 0.000000 -0.000000 0.000000 1.000000 0.450000 0.400000
0.000000 -0.200000 0.000000 -0.000000 0.000000 1.000000 0.500000 0.400000
0.100000 -0.200000 0.000000 -0.000000 0.000000 1.000000 0.550000 0.400000
0.200000 -0.200000 0.000000 -0.000000 0.000000 1.000000 0.600000 0.400000
0.300000 -0.200000 0.000000 -0.000000 0.000000 1.000000 0.650000 0.400000
0.400000 -0.200000 0.000000 -0.000000 0.000000 1.000000 0.700000 0.400000
0.500000 -0.200000 0.000000 -0.000000 0.000000 1.000000 0.750000 0.400000
0.600000 -0.200000 0.000000 -0.000000 0.000000 1.000000 0.800000 0.400000
0.700000 -0.200000 0.000000 -0.000000 0.000000 1.000000 0.850000 0.400000
0.800000 -0.200000 0.000000 -0.000000 0.000000 1.000000 0.900000 0.400000
1.000000 -0.300000 0.000000 -0.000000 0.000000 1.000000 1.000000 0.350000
0.900000 -0.200000 0.000000 -0.000000 0.000000 1.000000 0.950000 0.400000
-1.000000 -0.100000 0.000000 -0.000000 0.000000 1.000000 0.000000 0.450000
-0.900000 -0.100000 0.000000 -0.000000 0.000000 1.000000 0.050000 0.450000
-0.800000 -0.100000 0.000000 -0.000000 0.000000 1.000000 0.100000 0.450000
-0.700000 -0.100000 0.000000 -0.000000 0.000000 1.000000 0.150000 0.450000
-0.600000 -0.100000 0.000000 -0.000000 0.000000 1.000000 0.200000 0.450000
-0.500000 -0.100000 0.000000 -0.000000 0.000000 1.000000 0.250000 0.450000
-0.400000 -0.100000 0.000000 -0.000000 0.000000 1.000000 0.300000 0.450000
-0.300000 -0.100000 0.000000 -0.000000 0.000000 1.000000 0.350000 0.450000
-0.200000 -0.100000 0.000000 -0.000000 0.000000 1.000000 0.400000 0.450000
-0.100000 -0.100000 0.000000 -0.000000 0.000000 1.000000 0.450000 0.450000
0.000000 -0.100000 0.000000 -0.000000 0.000000 1.000000 0.500000 0.450000
0.100000 -0.100000 0.000000 -0.000000 0.000000 1.000000 0.550000 0.450000
0.200000 -0.100000 0.000000 -0.000000 0.000000 1.000000 0.600000 0.450000
0.300000 -0.100000 0.000000 -0.000000 0.000000 1.000000 0.650000 0.450000
0.400000 -0.100000 0.000000 -0.000000 0.000000 1.000000 0.700000 0.450000
0.500000 -0.100000 0.000000 -0.000000 0.000000 1.000000 0.750000 0.450000
0.600000 -0.100000 0.000000 -0.000000 0.000000 1.000000 0.800000 0.450000
0.700000 -0.100000 0.000000 -0.000000 0.000000 1.000000 0.850000 0.450000
0.800000 -0.100000 0.000000 -0.000000 0.000000 1.000000 0.900000 0.450000
1.000000 -0.200000 0.000000 -0.000000 0.000000 1.000000 1.000000 0.400000
0.900000 -0.100000 0.000000 -0.000000 0.000000 1.000000 0.950000 0.450000
-1.000000 0.000000 0.000000 -0.000000 0.000000 1.000000 0.000000 0.500000
-0.900000 0.000000 0.000000 -0.000000 0.000000 1.000000 0.050000 0.500000
-0.800000 0.000000 0.000000 -0.000000 0.000000 1.000000 0.100000 0.500000
-0.700000 0.000000 0.000000 -0.000000 0.000000 1.000000 0.150000 0.500000
-0.600000 0.000000 0.000000 -0.000000 0.000000 1.000000 0.200000 0.500000
-0.500000 0.000000 0.000000 -0.000000 0.000000 1.000000 0.250000 0.500000
-0.400000 0.000000 0.000000 -0.000000 0.000000 1.000000 0.300000 0.500000
-0.300000 0.000000 0.000000 -0.000000 0.000000 1.000000 0.350000 0.500000
-0.200000 0.000000 0.000000 -0.000000 0.000000 1.000000 0.400000 0.500000
-0.100000 0.000000 0.000000 -0.000000 0.000000 1.000000 0.450000 0.500000
0.000000 0.000000 0.000000 -0.000000 0.000000 1.000000 0.500000 0.500000
0.100000 0.000000 0.000000 -0.000000 0.000000 1.000000 0.550000 0.500000
0.200000 0.000000 0.000000 -0.000000 0.000000 1.000000 0.600000 0.500000
0.300000 0.000000 0.000000 -0.000000 0.000000 1.000000 0.650000 0.500000
0.400000 0.000000 0.000000 -0.000000 0.000000 1.000000 0.700000 0.500000
0.500000 0.000000 0.000000 -0.000000 0.000000 1.000000 0.750000 0.500000
0.600000 0.000000 0.000000 -0.000000 0.000000 1.000000 0.800000 0.500000
0.700000 0.000000 0.000000 -0.000000 0.000000 1.000000 0.850000 0.500000
0.800000 0.000000 0.000000 -0.000000 0.000000 1.000000 0.900000 0.500000
1.000000 -0.100000 0.000000 -0.000000 0.000000 1.000000 1.000000 0.450000
0.900000 0.000000 0.000000 -0.000000 0.000000 1.000000 0.950000 0.500000
-1.000000 0.100000 0.000000 -0.000000 0.000000 1.000000 0.000000 0.550000
-0.900000 0.100000 0.000000 -0.000000 0.000000 1.000000 0.050000 0.550000
-0.800000 0.100000 0.000000 -0.000000 0.000000 1.000000 0.100000 0.550000
-0.700000 0.100000 0.000000 -0.000000 0.000000 1.000000 0.150000 0.550000
-0.600000 0.100000 0.000000 -0.000000 0.000000 1.000000 0.200000 0.550000
-0.500000 0.100000 0.000000 -0.000000 0.000000 1.000000 0.250000 0.550000
-0.400000 0.100000 0.000000 -0.000000 0.000000 1.000000 0.300000 0.550000
-0.300000 0.100000 0.000000 -0.000000 0.000000 1.000000 0.350000 0.550000
-0.200000 0.100000 0.000000 -0.000000 0.000000 1.000000 0.400000 0.550000
-0.100000 0.100000 0.000000 -0.000000 0.000000 1.000000 0.450000 0.550000
0.000000 0.100000 0.000000 -0.000000 0.000000 1.000000 0.500000 0.550000
0.100000 0.100000 0.000000 -0.000000 0.000000 1.000000 0.550000 0.550000
0.200000 0.100000 0.000000 -0.000000 0.000000 1.000000 0.600000 0.550000
0.300000 0.100000 0.000000 -0.000000 0.000000 1.000000 0.650000 0.550000
0.400000 0.100000 0.000000 -0.000000 0.000000 1.000000 0.700000 0.550000
0.500000 0.100000 0.000000 -0.000000 0.000000 1.000000 0.750000 0.550000
0.600000 0.100000 0.000000 -0.000000 0.000000 1.000000 0.800000 0.550000
0.700000 0.100000 0.000000 -0.000000 0.000000 1.000000 0.850000 0.550000
0.800000 0.100000 0.000000 -0.000000 0.000000 1.000000 0.900000 0.550000
1.000000 0.000000 0.000000 -0.000000 0.000000 1.000000 1.000000 0.500000
0.900000 0.100000 0.000000 -0.000000 0.000000 1.000000 0.950000 0.550000
-1.000000 0.200000 0.000000 -0.000000 0.000000 1.000000 0.000000 0.600000
-0.900000 0.200000 0.000000 -0.000000 0.000000 1.000000 0.050000 0.600000
-0.800000 0.200000 0.000000 -0.000000 0.000000 1.000000 0.100000 0.600000
-0.700000 0.200000 0.000000 -0.000000 0.000000 1.000000 0.150000 0.600000
-0.600000 0.200000 0.000000 -0.000000 0.000000 1.000000 0.200000 0.600000
-0.500000 0.200000 0.000000 -0.000000 0.000000 1.000000 0.250000 0.600000
-0.400000 0.200000 0.000000 -0.000000 0.000000 1.000000 0.300000 0.600000
-0.300000 0.200000 0.000000 -0.000000 0.000000 1.000000 0.350000 0.600000
-0.200000 0.200000 0.000000 -0.000000 0.000000 1.000000 0.400000 0.600000
-0.100000 0.200000 0.000000 -0.000000 0.000000 1.000000 0.450000 0.600000
0.000000 0.200000 0.000000 -0.000000 0.000000 1.000000 0.500000 0.600000
0.100000 0.200000 0.000000 -0.000000 0.000000 1.000000 0.550000 0.600000
0.200000 0.200000 0.000000 -0.000000 0.000000 1.000000 0.600000 0.600000
0.300000 0.200000 0.000000 -0.000000 0.000000 1.000000 0.650000 0.600000
0.400000 0.200000 0.000000 -0.000000 0.000000 1.000000 0.700000 0.600000
0.500000 0.200000 0.000000 -0.000000 0.000000 1.000000 0.750000 0.600000
0.600000 0.200000 0.000000 -0.000000 0.000000 1.000000 0.800000 0.600000
0.700000 0.200000 0.000000 -0.000000 0.000000 1.000000 0.850000 0.600000
0.800000 0.200000 0.000000 -0.000000 0.000000 1.000000 0.900000 0.600000
1.000000 0.100000 0.000000 -0.000000 0.000000 1.000000 1.000000 0.550000
0.900000 0.200000 0.000000 -0.000000 0.000000 1.000000 0.950000 0.600000
-1.000000 0.300000 0.000000 -0.000000 0.000000 1.000000 0.000000 0.650000
-0.900000 0.300000 0.000000 -0.000000 0.000000 1.000000 0.050000 0.650000
-0.800000 0.300000 0.000000 -0.000000 0.000000 1.000000 0.100000 0.650000
-0.700000 0.300000 0.000000 -0.000000 0.000000 1.000000 0.150000 0.650000
-0.600000 0.300000 0.000000 -0.000000 0.000000 1.000000 0.200000 0.650000
-0.500000 0.300000 0.000000 -0.000000 0.000000 1.000000 0.250000 0.650000
-0.400000 0.300000 0.000000 -0.000000 0.000000 1.000000 0.300000 0.650000
-0.300000 0.300000 0.000000 -0.000000 0.000000 1.000000 0.350000 0.650000
-0.200000 0.300000 0.000000 -0.000000 0.000000 1.000000 0.400000 0.650000
-0.100000 0.300000 0.000000 -0.000000 0.000000 1.000000 0.450000 0.650000
0.000000 0.300000 0.000000 -0.000000 0.000000 1.000000 0.500000 0.650000
0.100000 0.300000 0.000000 -0.000000 0.000000 1.000000 0.550000 0.650000
0.200000 0.300000 0.000000 -0.000000 0.000000 1.000000 0.600000 0.650000
0.300000 0.300000 0.000000 -0.000000 0.000000 1.000000 0.650000 0.650000
0.400000 0.300000 0.000000 -0.000000 0.000000 1.000000 0.700000 0.650000
0.500000 0.300000 0.000000 -0.000000 0.000000 1.000000 0.750000 0.650000
0.600000 0.300000 0.000000 -0.000000 0.000000 1.000000 0.800000 0.650000
0.700000 0.300000 0.000000 -0.000000 0.000000 1.000000 0.850000 0.650000
0.800000 0.300000 0.000000 -0.000000 0.000000 1.000000 0.900000 0.650000
1.000000 0.200000 0.000000 -0.000000 0.000000 1.000000 1.000000 0.600000
0.900000 0.300000 0.000000 -0.000000 0.000000 1.000000 0.950000 0.650000
-1.000000 0.400000 0.000000 -0.000000 0.000000 1.000000 0.000000 0.700000
-0.900000 0.400000 0.000000 -0.000000 0.000000 1.000000 0.050000 0.700000
-0.800000 0.400000 0.000000 -0.000000 0.000000 1.000000 0.100000 0.700000
-0.700000 0.400000 0.000000 -0.000000 0.000000 1.000000 0.150000 0.700000
-0.600000 0.400000 0.000000 -0.000000 0.000000 1.000000 0.200000 0.700000
-0.500000 0.400000 0.000000 -0.000000 0.000000 1.000000 0.250000 0.700000
-0.400000 0.400000 0.000000 -0.000000 0.000000 1.000000 0.300000 0.700000
-0.300000 0.400000 0.000000 -0.000000 0.000000 1.000000 0.350000 0.700000
-0.200000 0.400000 0.000000 -0.000000 0.000000 1.000000 0.400000 0.700000
-0.100000 0.400000 0.000000 -0.000000 0.000000 1.000000 0.450000 0.700000
0.000000 0.400000 0.000000 -0.000000 0.000000 1.000000 0.500000 0.700000
0.100000 0.400000 0.000000 -0.000000 0.000000 1.000000 0.550000 0.700000
0.200000 0.400000 0.000000 -0.000000 0.000000 1.000000 0.600000 0.700000
0.300000 0.400000 0.000000 -0.000000 0.000000 1.000000 0.650000 0.700000
0.400000 0.400000 0.000000 -0.000000 0.000000 1.000000 0.700000 0.700000
0.500000 0.400000 0.000000 -0.000000 0.000000 1.000000 0.750000 0.700000
0.600000 0.400000 0.000000 -0.000000 0.000000 1.000000 0.800000 0.700000
0.700000 0.400000 0.000000 -0.000000 0.000000 1.000000 0.850000 0.700000
0.800000 0.400000 0.000000 -0.000000 0.000000 1.000000 0.900000 0.700000
1.000000 0.300000 0.000000 -0.000000 0.000000 1.000000 1.000000 0.650000
0.900000 0.400000 0.000000 -0.000000 0.000000 1.000000 0.950000 0.700000
-1.000000 0.500000 0.000000 -0.000000 0.000000 1.000000 0.000000 0.750000
-0.900000 0.500000 0.000000 -0.000000 0.000000 1.000000 0.050000 0.750000
-0.800000 0.500000 0.000000 -0.000000 0.000000 1.000000 0.100000 0.750000
-0.700000 0.500000 0.000000 -0.000000 0.000000 1.000000 0.150000 0.750000
-0.600000 0.500000 0.000000 -0.000000 0.000000 1.000000 0.200000 0.750000
-0.500000 0.500000 0.000000 -0.000000 0.000000 1.000000 0.250000 0.750000
-0.400000 0.500000 0.000000 -0.000000 0.000000 1.000000 0.300000 0.750000
-0.300000 0.500000 0.000000 -0.000000 0.000000 1.000000 0.350000 0.750000
-0.200000 0.500000 0.000000 -0.000000 0.000000 1.000000 0.400000 0.750000
-0.100000 0.500000 0.000000 -0.000000 0.000000 1.000000 0.450000 0.750000
0.000000 0.500000 0.000000 -0.000000 0.000000 1.000000 0.500000 0.750000
0.100000 0.500000 0.000000 -0.000000 0.000000 1.000000 0.550000 0.750000
0.200000 0.500000 0.000000 -0.000000 0.000000 1.000000 0.600000 0.750000
0.300000 0.500000 0.000000 -0.000000 0.000000 1.000000 0.650000 0.750000
0.400000 0.500000 0.000000 -0.000000 0.000000 1.000000 0.700000 0.750000
0.500000 0.500000 0.000000 -0.000000 0.000000 1.000000 0.750000 0.750000
0.600000 0.500000 0.000000 -0.000000 0.000000 1.000000 0.800000 0.750000
0.700000 0.500000 0.000000 -0.000000 0.000000 1.000000 0.850000 0.750000
0.800000 0.500000 0.000000 -0.000000 0.000000 1.000000 0.900000 0.750000
1.000000 0.400000 0.000000 -0.000000 0.000000 1.000000 1.000000 0.700000
0.900000 0.500000 0.000000 -0.000000 0.000000 1.000000 0.950000 0.750000
-1.000000 0.600000 0.000000 -0.000000 0.000000 1.000000 0.000000 0.800000
-0.900000 0.600000 0.000000 -0.000000 0.000000 1.000000 0.050000 0.800000
-0.800000 0.600000 0.000000 -0.000000 0.000000 1.000000 0.100000 0.800000
-0.700000 0.600000 0.000000 -0.000000 0.000000 1.000000 0.150000 0.800000
-0.600000 0.600000 0.000000 -0.000000 0.000000 1.000000 0.200000 0.800000
-0.500000 0.600000 0.000000 -0.000000 0.000000 1.000000 0.250000 0.800000
-0.400000 0.600000 0.000000 -0.000000 0.000000 1.000000 0.300000 0.800000
-0.300000 0.600000 0.000000 -0.000000 0.000000 1.000000 0.350000 0.800000
-0.200000 0.600000 0.000000 -0.000000 0.000000 1.000000 0.400000 0.800000
-0.100000 0.600000 0.000000 -0.000000 0.000000 1.000000 0.450000 0.800000
0.000000 0.600000 0.000000 -0.000000 0.000000 1.000000 0.500000 0.800000
0.100000 0.600000 0.000000 -0.000000 0.000000 1.000000 0.550000 0.800000
0.200000 0.600000 0.000000 -0.000000 0.000000 1.000000 0.600000 0.800000
0.300000 0.600000 0.000000 -0.000000 0.000000 1.000000 0.650000 0.800000
0.400000 0.600000 0.000000 -0.000000 0.000000 1.000000 0.700000 0.800000
0.500000 0.600000 0.000000 -0.000000 0.000000 1.000000 0.750000 0.800000
0.600000 0.600000 0.000000 -0.000000 0.000000 1.000000 0.800000 0.800000
0.700000 0.600000 0.000000 -0.000000 0.000000 1.000000 0.850000 0.800000
0.800000 0.600000 0.000000 -0.000000 0.000000 1.000000 0.900000 0.800000
1.000000 0.500000 0.000000 -0.000000 0.000000 1.000000 1.000000 0.750000
0.900000 0.600000 0.000000 -0.000000 0.000000 1.000000 0.950000 0.800000
-1.000000 0.700000 0.000000 -0.000000 0.000000 1.000000 0.000000 0.850000
-0.900000 0.700000 0.000000 -0.000000 0.000000 1.000000 0.050000 0.850000
-0.800000 0.700000 0.000000 -0.000000 0.000000 1.000000 0.100000 0.850000
-0.700000 0.700000 0.000000 -0.000000 0.000000 1.000000 0.150000 0.850000
-0.600000 0.700000 0.000000 -0.000000 0.000000 1.000000 0.200000 0.850000
-0.500000 0.700000 0.000000 -0.000000 0.000000 1.000000 0.250000 0.850000
-0.400000 0.700000 0.000000 -0.000000 0.000000 1.000000 0.300000 0.850000
-0.300000 0.700000 0.000000 -0.000000 0.000000 1.000000 0.350000 0.850000
-0.200000 0.700000 0.000000 -0.000000 0.000000 1.000000 0.400000 0.850000
-0.100000 0.700000 0.000000 -0.000000 0.000000 1.000000 0.450000 0.850000
0.000000 0.700000 0.000000 -0.000000 0.000000 1.000000 0.500000 0.850000
0.100000 0.700000 0.000000 -0.000000 0.000000 1.000000 0.550000 0.850000
0.200000 0.700000 0.000000 -0.000000 0.000000 1.000000 0.600000 0.850000
0.300000 0.700000 0.000000 -0.000000 0.000000 1.000000 0.650000 0.850000
0.400000 0.700000 0.000000 -0.000000 0.000000 1.000000 0.700000 0.850000
0.500000 0.700000 0.000000 -0.000000 0.000000 1.000000 0.750000 0.850000
0.600000 0.700000 0.000000 -0.000000 0.000000 1.000000 0.800000 0.850000
0.700000 0.700000 0.000000 -0.000000 0.000000 1.000000 0.850000 0.850000
0.800000 0.700000 0.000000 -0.000000 0.000000 1.000000 0.900000 0.850000
1.000000 0.600000 0.000000 -0.000000 0.000000 1.000000 1.000000 0.800000
0.900000 0.700000 0.000000 -0.000000 0.000000 1.000000 0.950000 0.850000
-1.000000 0.800000 0.000000 -0.000000 0.000000 1.000000 0.000000 0.900000
-0.900000 0.800000 0.000000 -0.000000 0.000000 1.000000 0.050000 0.900000
-0.800000 0.800000 0.000000 -0.000000 0.000000 1.000000 0.100000 0.900000
-0.700000 0.800000 0.000000 -0.000000 0.000000 1.000000 0.150000 0.900000
-0.600000 0.800000 0.000000 -0.000000 0.000000 1.000000 0.200000 0.900000
-0.500000 0.800000 0.000000 -0.000000 0.000000 1.000000 0.250000 0.900000
-0.400000 0.800000 0.000000 -0.000000 0.000000 1.000000 0.300000 0.900000
-0.300000 0.800000 0.000000 -0.000000 0.000000 1.000000 0.350000 0.900000
-0.200000 0.800000 0.000000 -0.000000 0.000000 1.000000 0.400000 0.900000
-0.100000 0.800000 0.000000 -0.000000 0.000000 1.000000 0.450000 0.900000
0.000000 0.800000 0.000000 -0.000000 0.000000 1.000000 0.500000 0.900000
0.100000 0.800000 0.000000 -0.000000 0.000000 1.000000 0.550000 0.900000
0.200000 0.800000 0.000000 -0.000000 0.000000 1.000000 0.600000 0.900000
0.300000 0.800000 0.000000 -0.000000 0.000000 1.000000 0.650000 0.900000
0.400000 0.800000 0.000000 -0.000000 0.000000 1.000000 0.700000 0.900000
0.500000 0.800000 0.000000 -0.000000 0.000000 1.000000 0.750000 0.900000
0.600000 0.800000 0.000000 -0.000000 0.000000 1.000000 0.800000 0.900000
0.700000 0.800000 0.000000 -0.000000 0.000000 1.000000 0.850000 0.900000
0.800000 0.800000 0.000000 -0.000000 0.000000 1.000000 0.900000 0.900000
1.000000 0.700000 0.000000 -0.000000 0.000000 1.000000 1.000000 0.850000
0.900000 0.800000 0.000000 -0.000000 0.000000 1.000000 0.950000 0.900000
-1.000000 0.900000 0.000000 -0.000000 0.000000 1.000000 0.000000 0.950000
-0.900000 0.900000 0.000000 -0.000000 0.000000 1.000000 0.050000 0.950000
-0.800000 0.900000 0.000000 -0.000000 0.000000 1.000000 0.100000 0.950000
-0.700000 0.900000 0.000000 -0.000000 0.000000 1.000000 0.150000 0.950000
-0.600000 0.900000 0.000000 -0.000000 0.000000 1.000000 0.200000 0.950000
-0.500000 0.900000 0.000000 -0.000000 0.000000 1.000000 0.250000 0.950000
-0.400000 0.900000 0.000000 -0.000000 0.000000 1.000000 0.300000 0.950000
-0.300000 0.900000 0.000000 -0.000000 0.000000 1.000000 0.350000 0.950000
-0.200000 0.900000 0.000000 -0.000000 0.000000 1.000000 0.400000 0.950000
-0.100000 0.900000 0.000000 -0.000000 0.000000 1.000000 0.450000 0.950000
0.000000 0.900000 0.000000 -0.000000 0.000000 1.000000 0.500000 0.950000
0.100000 0.900000 0.000000 -0.000000 0.000000 1.000000 0.550000 0.950000
0.200000 0.900000 0.000000 -0.000000 0.000000 1.000000 0.600000 0.950000
0.300000 0.900000 0.000000 -0.000000 0.000000 1.000000 0.650000 0.950000
0.400000 0.900000 0.000000 -0.000000 0.000000 1.000000 0.700000 0.950000
0.500000 0.900000 0.000000 -0.000000 0.000000 1.000000 0.750000 0.950000
0.600000 0.900000 0.000000 -0.000000 0.000000 1.000000 0.800000 0.950000
0.700000 0.900000 0.000000 -0.000000 0.000000 1.000000 0.850000 0.950000
0.800000 0.900000 0.000000 -0.000000 0.000000 1.000000 0.900000 0.950000
1.000000 0.800000 0.000000 -0.000000 0.000000 1.000000 1.000000 0.900000
0.900000 0.900000 0.000000 -0.000000 0.000000 1.000000 0.950000 0.950000
-1.000000 1.000000 0.000000 -0.000000 0.000000 1.000000 0.000000 1.000000
-0.900000 1.000000 0.000000 -0.000000 0.000000 1.000000 0.050000 1.000000
-0.800000 1.000000 0.000000 -0.000000 0.000000 1.000000 0.100000 1.000000
-0.700000 1.000000 0.000000 -0.000000 0.000000 1.000000 0.150000 1.000000
-0.600000 1.000000 0.000000 -0.000000 0.000000 1.000000 0.200000 1.000000
-0.500000 1.000000 0.000000 -0.000000 0.000000 1.000000 0.250000 1.000000
-0.400000 1.000000 0.000000 -0.000000 0.000000 1.000000 0.300000 1.000000
-0.300000 1.000000 0.000000 -0.000000 0.000000 1.000000 0.350000 1.000000
-0.200000 1.000000 0.000000 -0.000000 0.000000 1.000000 0.400000 1.000000
-0.100000 1.000000 0.000000 -0.000000 0.000000 1.000000 0.450000 1.000000
0.000000 1.000000 0.000000 -0.000000 0.000000 1.000000 0.500000 1.000000
0.100000 1.000000 0.000000 -0.000000 0.000000 1.000000 0.550000 1.000000
0.200000 1.000000 0.000000 -0.000000 0.000000 1.000000 0.600000 1.000000
0.300000 1.000000 0.000000 -0.000000 0.000000 1.000000 0.650000 1.000000
0.400000 1.000000 0.000000 -0.000000 0.000000 1.000000 0.700000 1.000000
0.500000 1.000000 0.000000 -0.000000 0.000000 1.000000 0.750000 1.000000
0.600000 1.000000 0.000000 -0.000000 0.000000 1.000000 0.800000 1.000000
0.700000 1.000000 0.000000 -0.000000 0.000000 1.000000 0.850000 1.000000
0.800000 1.000000 0.000000 -0.000000 0.000000 1.000000 0.900000 1.000000
1.000000 0.900000 0.000000 -0.000000 0.000000 1.000000 1.000000 0.950000
0.900000 1.000000 0.000000 -0.000000 0.000000 1.000000 0.950000 1.000000
1.000000 1.000000 0.000000 -0.000000 0.000000 1.000000 1.000000 1.000000
3 0 1 2
3 3 4 0
3 5 6 3
3 7 8 5
3 9 10 7
3 11 12 9
3 13 14 11
3 15 16 13
3 17 18 15
3 19 20 17
3 21 22 19
3 23 24 21
3 25 26 23
3 27 28 25
3 29 30 27
3 31 32 29
3 33 34 31
3 35 36 33
3 37 38 35
3 39 40 37
3 4 41 1
3 6 42 4
3 8 43 6
3 10 44 8
3 12 45 10
3 14 46 12
3 16 47 14
3 18 48 16
3 20 49 18
3 22 50 20
3 24 51 22
3 26 52 24
3 28 53 26
3 30 54 28
3 32 55 30
3 34 56 32
3 36 57 34
3 38 58 36
3 40 59 38
3 60 61 40
3 42 62 41
3 43 63 42
3 44 64 43
3 45 65 44
3 46 66 45
3 47 67 46
3 48 68 47
3 49 69 48
3 50 70 49
3 51 71 50
3 52 72 51
3 53 73 52
3 54 74 53
3 55 75 54
3 56 76 55
3 57 77 56
3 58 78 57
3 59 79 58
3 61 80 59
3 81 82 61
3 63 83 62
3 64 84 63
3 65 85 64
3 66 86 65
3 67 87 66
3 68 88 67
3 69 89 68
3 70 90 69
3 71 91 70
3 72 92 71
3 73 93 72
3 74 94 73
3 75 95 74
3 76 96 75
3 77 97 76
3 78 98 77
3 79 99 78
3 80 100 79
3 82 101 80
3 102 103 82
3 84 104 83
3 85 105 84
3 86 106 85
3 87 107 86
3 88 108 87
3 89 109 88
3 90 110 89
3 91 111 90
3 92 112 91
3 93 113 92
3 94 114 93
3 95 115 94
3 96 116 95
3 97 117 96
3 98 118 97
3 99 119 98
3 100 120 99
3 101 121 100
3 103 122 101
3 123 124 103
3 105 125 104
3 106 126 105
3 107 127 106
3 108 128 107
3 109 129 108
3 110 130 109
3 111 131 110
3 112 132 111
3 113 133 112
3 114 134 113
3 115 135 114
3 116 136 115
3 117 137 116
3 118 138 117
3 119 139 118
3 120 140 119
3 121 141 120
3 122 142 121
3 124 143 122
3 144 145 124
3 126 146 125
3 127 147 126
3 128 148 127
3 129 149 128
3 130 150 129
3 131 151 130
3 132 152 131
3 133 153 132
3 134 154 133
3 135 155 134
3 136 156 135
3 137 157 136
3 138 158 137
3 139 159 138
3 140 160 139
3 141 161 140
3 142 162 141
3 143 163 142
3 145 164 143
3 165 166 145
3 147 167 146
3 148 168 147
3 149 169 148
3 150 170 149
3 151 171 150
3 152 172 151
3 153 173 152
3 154 174 153
3 155 175 154
3 156 176 155
3 157 177 156
3 158 178 157
3 159 179 158
3 160 180 159
3 161 181 160
3 162 182 161
3 163 183 162
3 164 184 163
3 166 185 164
3 186 187 166
3 168 188 167
3 169 189 168
3 170 190 169
3 171 191 170
3 172 192 171
3 173 193 172
3 174 194 173
3 175 195 174
3 176 196 175
3 177 197 176
3 178 198 177
3 179 199 178
3 180 200 179
3 181 201 180
3 182 202 181
3 183 203 182
3 184 204 183
3 185 205 184
3 187 206 185
3 207 208 187
3 189 209 188
3 190 210 189
3 191 211 190
3 192 212 191
3 193 213 192
3 194 214 193
3 195 215 194
3 196 216 195
3 197 217 196
3 198 218 197
3 199 219 198
3 200 220 199
3 201 221 200
3 202 222 201
3 203 223 202
3 204 224 203
3 205 225 204
3 206 226 205
3 208 227 206
3 228 229 208
3 210 230 209
3 211 231 210
3 212 232 211
3 213 233 212
3 214 234 213
3 215 235 214
3 216 236 215
3 217 237 216
3 218 238 217
3 219 239 218
3 220 240 219
3 221 241 220
3 222 242 221
3 223 243 222
3 224 244 223
3 225 245 224
3 226 246 225
3 227 247 226
3 229 248 227
3 249 250 229
3 231 251 230
3 232 252 231
3 233 253 232
3 234 254 233
3 235 255 234
3 236 256 235
3 237 257 236
3 238 258 237
3 239 259 238
3 240 260 239
3 241 261 240
3 242 262 241
3 243 263 242
3 244 264 243
3 245 265 244
3 246 266 245
3 247 267 246
3 248 268 247
3 250 269 248
3 270 271 250
3 252 272 251
3 253 273 252
3 254 274 253
3 255 275 254
3 256 276 255
3 257 277 256
3 258 278 257
3 259 279 258
3 260 280 259
3 261 281 260
3 262 282 261
3 263 283 262
3 264 284 263
3 265 285 264
3 266 286 265
3 267 287 266
3 268 288 267
3 269 289 268
3 271 290 269
3 291 292 271
3 273 293 272
3 274 294 273
3 275 295 274
3 276 296 275
3 277 297 276
3 278 298 277
3 279 299 278
3 280 300 279
3 281 301 280
3 282 302 281
3 283 303 282
3 284 304 283
3 285 305 284
3 286 306 285
3 287 307 286
3 288 308 287
3 289 309 288
3 290 310 289
3 292 311 290
3 312 313 292
3 294 314 293
3 295 315 294
3 296 316 295
3 297 317 296
3 298 318 297
3 299 319 298
3 300 320 299
3 301 321 300
3 302 322 301
3 303 323 302
3 304 324 303
3 305 325 304
3 306 326 305
3 307 327 306
3 308 328 307
3 309 329 308
3 310 330 309
3 311 331 310
3 313 332 311
3 333 334 313
3 315 335 314
3 316 336 315
3 317 337 316
3 318 338 317
3 319 339 318
3 320 340 319
3 321 341 320
3 322 342 321
3 323 343 322
3 324 344 323
3 325 345 324
3 326 346 325
3 327 347 326
3 328 348 327
3 329 349 328
3 330 350 329
3 331 351 330
3 332 352 331
3 334 353 332
3 354 355 334
3 336 356 335
3 337 357 336
3 338 358 337
3 339 359 338
3 340 360 339
3 341 361 340
3 342 362 341
3 343 363 342
3 344 364 343
3 345 365 344
3 346 366 345
3 347 367 346
3 348 368 347
3 349 369 348
3 350 370 349
3 351 371 350
3 352 372 351
3 353 373 352
3 355 374 353
3 375 376 355
3 357 377 356
3 358 378 357
3 359 379 358
3 360 380 359
3 361 381 360
3 362 382 361
3 363 383 362
3 364 384 363
3 365 385 364
3 366 386 365
3 367 387 366
3 368 388 367
3 369 389 368
3 370 390 369
3 371 391 370
3 372 392 371
3 373 393 372
3 374 394 373
3 376 395 374
3 396 397 376
3 378 398 377
3 379 399 378
3 380 400 379
3 381 401 380
3 382 402 381
3 383 403 382
3 384 404 383
3 385 405 384
3 386 406 385
3 387 407 386
3 388 408 387
3 389 409 388
3 390 410 389
3 391 411 390
3 392 412 391
3 393 413 392
3 394 414 393
3 395 415 394
3 397 416 395
3 417 418 397
3 399 419 398
3 400 420 399
3 401 421 400
3 402 422 401
3 403 423 402
3 404 424 403
3 405 425 404
3 406 426 405
3 407 427 406
3 408 428 407
3 409 429 408
3 410 430 409
3 411 431 410
3 412 432 411
3 413 433 412
3 414 434 413
3 415 435 414
3 416 436 415
3 418 437 416
3 438 439 418
3 0 4 1
3 3 6 4
3 5 8 6
3 7 10 8
3 9 12 10
3 11 14 12
3 13 16 14
3 15 18 16
3 17 20 18
3 19 22 20
3 21 24 22
3 23 26 24
3 25 28 26
3 27 30 28
3 29 32 30
3 31 34 32
3 33 36 34
3 35 38 36
3 37 40 38
3 39 60 40
3 4 42 41
3 6 43 42
3 8 44 43
3 10 45 44
3 12 46 45
3 14 47 46
3 16 48 47
3 18 49 48
3 20 50 49
3 22 51 50
3 24 52 51
3 26 53 52
3 28 54 53
3 30 55 54
3 32 56 55
3 34 57 56
3 36 58 57
3 38 59 58
3 40 61 59
3 60 81 61
3 42 63 62
3 43 64 63
3 44 65 64
3 45 66 65
3 46 67 66
3 47 68 67
3 48 69 68
3 49 70 69
3 50 71 70
3 51 72 71
3 52 73 72
3 53 74 73
3 54 75 74
3 55 76 75
3 56 77 76
3 57 78 77
3 58 79 78
3 59 80 79
3 61 82 80
3 81 102 82
3 63 84 83
3 64 85 84
3 65 86 85
3 66 87 86
3 67 88 87
3 68 89 88
3 69 90 89
3 70 91 90
3 71 92 91
3 72 93 92
3 73 94 93
3 74 95 94
3 75 96 95
3 76 97 96
3 77 98 97
3 78 99 98
3 79 100 99
3 80 101 100
3 82 103 101
3 102 123 103
3 84 105 104
3 85 106 105
3 86 107 106
3 87 108 107
3 88 109 108
3 89 110 109
3 90 111 110
3 91 112 111
3 92 113 112
3 93 114 113
3 94 115 114
3 95 116 115
3 96 117 116
3 97 118 117
3 98 119 118
3 99 120 119
3 100 121 120
3 101 122 121
3 103 124 122
3 123 144 124
3 105 126 125
3 106 127 126
3 107 128 127
3 108 129 128
3 109 130 129
3 110 131 130
3 111 132 131
3 112 133 132
3 113 134 133
3 114 135 134
3 115 136 135
3 116 137 136
3 117 138 137
3 118 139 138
3 119 140 139
3 120 141 140
3 121 142 141
3 122 143 142
3 124 145 143
3 144 165 145
3 126 147 146
3 127 148 147
3 128 149 148
3 129 150 149
3 130 151 150
3 131 152 151
3 132 153 152
3 133 154 153
3 134 155 154
3 135 156 155
3 136 157 156
3 137 158 157
3 138 159 158
3 139 160 159
3 140 161 160
3 141 162 161
3 142 163 162
3 143 164 163
3 145 166 164
3 165 186 166
3 147 168 167
3 148 169 168
3 149 170 169
3 150 171 170
3 151 172 171
3 152 173 172
3 153 174 173
3 154 175 174
3 155 176 175
3 156 177 176
3 157 178 177
3 158 179 178
3 159 180 179
3 160 181 180
3 161 182 181
3 162 183 182
3 163 184 183
3 164 185 184
3 166 187 185
3 186 207 187
3 168 189 188
3 169 190 189
3 170 191 190
3 171 192 191
3 172 193 192
3 173 194 193
3 174 195 194
3 175 196 195
3 176 197 196
3 177 198 197
3 178 199 198
3 179 200 199
3 180 201 200
3 181 202 201
3 182 203 202
3 183 204 203
3 184 205 204
3 185 206 205
3 187 208 206
3 207 228 208
3 189 210 209
3 190 211 210
3 191 212 211
3 192 213 212
3 193 214 213
3 194 215 214
3 195 216 215
3 196 217 216
3 197 218 217
3 198 219 218
3 199 220 219
3 200 221 220
3 201 222 221
3 202 223 222
3 203 224 223
3 204 225 224
3 205 226 225
3 206 227 226
3 208 229 227
3 228 249 229
3 210 231 230
3 211 232 231
3 212 233 232
3 213 234 233
3 214 235 234
3 215 236 235
3 216 237 236
3 217 238 237
3 218 239 238
3 219 240 239
3 220 241 240
3 221 242 241
3 222 243 242
3 223 244 243
3 224 245 244
3 225 246 245
3 226 247 246
3 227 248 247
3 229 250 248
3 249 270 250
3 231 252 251
3 232 253 252
3 233 254 253
3 234 255 254
3 235 256 255
3 236 257 256
3 237 258 257
3 238 259 258
3 239 260 259
3 240 261 260
3 241 262 261
3 242 263 262
3 243 264 263
3 244 265 264
3 245 266 265
3 246 267 266
3 247 268 267
3 248 269 268
3 250 271 269
3 270 291 271
3 252 273 272
3 253 274 273
3 254 275 274
3 255 276 275
3 256 277 276
3 257 278 277
3 258 279 278
3 259 280 279
3 260 281 280
3 261 282 281
3 262 283 282
3 263 284 283
3 264 285 284
3 265 286 285
3 266 287 286
3 267 288 287
3 268 289 288
3 269 290 289
3 271 292 290
3 291 312 292
3 273 294 293
3 274 295 294
3 275 296 295
3 276 297 296
3 277 298 297
3 278 299 298
3 279 300 299
3 280 301 300
3 281 302 301
3 282 303 302
3 283 304 303
3 284 305 304
3 285 306 305
3 286 307 306
3 287 308 307
3 288 309 308
3 289 310 309
3 290 311 310
3 292 313 311
3 312 333 313
3 294 315 314
3 295 316 315
3 296 317 316
3 297 318 317
3 298 319 318
3 299 320 319
3 300 321 320
3 301 322 321
3 302 323 322
3 303 324 323
3 304 325 324
3 305 326 325
3 306 327 326
3 307 328 327
3 308 329 328
3 309 330 329
3 310 331 330
3 311 332 331
3 313 334 332
3 333 354 334
3 315 336 335
3 316 337 336
3 317 338 337
3 318 339 338
3 319 340 339
3 320 341 340
3 321 342 341
3 322 343 342
3 323 344 343
3 324 345 344
3 325 346 345
3 326 347 346
3 327 348 347
3 328 349 348
3 329 350 349
3 330 351 350
3 331 352 351
3 332 353 352
3 334 355 353
3 354 375 355
3 336 357 356
3 337 358 357
3 338 359 358
3 339 360 359
3 340 361 360
3 341 362 361
3 342 363 362
3 343 364 363
3 344 365 364
3 345 366 365
3 346 367 366
3 347 368 367
3 348 369 368
3 349 370 369
3 350 371 370
3 351 372 371
3 352 373 372
3 353 374 373
3 355 376 374
3 375 396 376
3 357 378 377
3 358 379 378
3 359 380 379
3 360 381 380
3 361 382 381
3 362 383 382
3 363 384 383
3 364 385 384
3 365 386 385
3 366 387 386
3 367 388 387
3 368 389 388
3 369 390 389
3 370 391 390
3 371 392 391
3 372 393 392
3 373 394 393
3 374 395 394
3 376 397 395
3 396 417 397
3 378 399 398
3 379 400 399
3 380 401 400
3 381 402 401
3 382 403 402
3 383 404 403
3 384 405 404
3 385 406 405
3 386 407 406
3 387 408 407
3 388 409 408
3 389 410 409
3 390 411 410
3 391 412 411
3 392 413 412
3 393 414 413
3 394 415 414
3 395 416 415
3 397 418 416
3 417 438 418
3 399 420 419
3 400 421 420
3 401 422 421
3 402 423 422
3 403 424 423
3 404 425 424
3 405 426 425
3 406 427 426
3 407 428 427
3 408 429 428
3 409 430 429
3 410 431 430
3 411 432 431
3 412 433 432
3 413 434 433
3 414 435 434
3 415 436 435
3 416 437 436
3 418 439 437
3 438 440 439
